<svg width="3902" height="2344" xmlns="http://www.w3.org/2000/svg" preserveAspectRatio="xMidYMid meet">

 <g>
  <title>background</title>
  <rect fill="none" id="canvas_background" height="2346" width="3904" y="-1" x="-1"/>
 </g>
 <g>
  <title>Layer 1</title>
  <g fill="#ffff00" id="layer1">
   <path id="svg_1" d="m814.999259,2324.747774c-64,-22 -166,-120 -234,-225c-36,-57 -154,-263 -154,-271c0,-3 -30,-5 -67,-5c-84,0 -148,-30 -212,-99c-111,-121 -130,-288 -47,-430c21,-34 71,-84 104,-101c1,0 -10,-23 -25,-50c-26,-45 -28,-58 -28,-154c0,-100 2,-109 36,-181c20,-42 57,-97 81,-123l44,-46l-27,-26c-73,-70 -99,-233 -60,-364c30,-97 76,-146 178,-191c70,-29 90,-33 194,-37c104,-4 129,-1 245,27c120,30 134,31 194,20c143,-25 240,51 240,189c0,31 1,32 43,32c47,0 104,13 159,37c34,14 42,14 102,-2c49,-13 85,-16 140,-12c66,6 75,4 92,-14c58,-64 211,-98 302,-66l43,15l24,-48c33,-66 69,-106 124,-138c43,-25 54,-27 161,-27c106,0 119,2 167,27c82,44 128,94 148,161c31,108 0,191 -89,237c-82,42 -66,49 56,23c62,-13 135,-28 162,-33c74,-15 248,-12 333,6c128,26 290,119 406,233c92,89 109,118 143,249c40,147 23,252 -53,333l-24,26l20,34c44,75 111,241 125,312c27,130 15,262 -33,356c-48,93 -200,174 -436,233c-70,17 -121,22 -225,22c-121,1 -139,-1 -177,-21c-23,-13 -54,-38 -69,-57l-27,-33l-41,42c-47,49 -107,71 -168,61c-65,-11 -162,-54 -213,-97c-32,-26 -54,-38 -64,-33c-98,42 -145,41 -235,-5c-46,-23 -58,-25 -78,-16c-71,36 -152,47 -328,43c-146,-3 -181,-7 -211,-22c-37,-19 -37,-19 -90,8c-30,14 -93,36 -141,48c-74,19 -93,21 -140,11c-44,-9 -54,-8 -61,4c-20,35 -73,86 -106,102c-20,10 -66,25 -102,33c-54,13 -73,13 -101,3zm174,-186c28,-33 38,-71 58,-209c15,-107 27,-161 66,-286c55,-178 86,-224 167,-254c21,-7 27,-16 27,-37c0,-52 -12,-72 -58,-103c-41,-27 -53,-30 -129,-30c-97,0 -121,11 -158,74c-35,61 -45,107 -59,256l-12,135l-17,-32c-36,-67 -16,-241 39,-340c19,-34 34,-66 34,-72c0,-24 -64,-51 -123,-51c-63,0 -107,17 -131,52c-28,40 -17,156 34,343c10,39 22,102 26,142c7,82 -2,156 -17,132c-15,-23 -47,-137 -69,-249c-25,-126 -54,-194 -109,-253c-55,-59 -84,-70 -173,-65c-141,8 -193,59 -193,190c0,69 3,80 30,119c59,84 122,107 195,71c50,-25 52,-59 4,-111c-25,-28 -31,-41 -21,-41c25,0 64,60 117,179c93,211 248,451 291,451c23,0 27,-27 35,-213c7,-151 8,-157 22,-125c9,21 17,79 20,155c4,109 2,126 -17,166c-31,64 -29,67 37,52c43,-10 64,-21 84,-46zm2387,-44c178,-44 305,-107 334,-167c41,-84 32,-260 -21,-380c-57,-133 -87,-182 -131,-215l-43,-33l-177,2l-176,3l3,57c1,31 11,100 23,155c39,185 44,235 29,287c-21,77 -82,161 -145,201c-62,40 -72,71 -32,100c19,14 41,16 147,11c69,-3 154,-12 189,-21zm-621,3c18,-18 14,-108 -7,-169c-10,-30 -35,-87 -56,-128c-33,-65 -95,-236 -95,-264c0,-27 -67,-156 -99,-190c-65,-70 -102,-78 -257,-56c-125,17 -178,54 -191,132c-9,60 3,86 50,107c72,33 242,20 268,-21c14,-22 11,-65 -8,-104c-34,-71 28,-72 81,-2c20,26 28,51 33,99l6,65l-64,7c-35,3 -95,9 -132,12c-81,8 -94,21 -114,118c-35,168 4,283 102,302c31,5 48,2 81,-15c32,-17 50,-21 76,-16c45,10 106,42 137,72c50,49 161,79 189,51zm-1413,-71c62,-20 70,-26 73,-50c3,-21 -6,-37 -36,-67c-49,-48 -59,-77 -71,-204c-7,-85 -12,-103 -31,-118c-66,-54 -107,-2 -151,192c-23,105 -24,148 -3,200c29,73 94,87 219,47zm1727,-62c71,-56 99,-108 106,-196c4,-58 2,-68 -20,-93c-23,-28 -24,-28 -83,-16c-33,6 -85,10 -115,8l-55,-3l86,-32c47,-18 92,-33 101,-33c9,0 26,-8 37,-18c21,-16 22,-21 12,-77c-21,-112 -40,-188 -51,-199c-13,-13 -269,-21 -387,-11c-79,6 -83,8 -90,33c-14,51 -8,137 15,207c24,72 31,88 77,189c15,32 44,101 64,152c21,52 41,91 45,87c3,-3 6,-53 6,-110l0,-103l83,0c72,0 79,2 57,13c-45,23 -70,73 -70,143c0,80 19,104 83,104c35,0 52,-8 99,-45zm-1068,20c101,-31 126,-68 126,-188c0,-59 -4,-79 -20,-100c-30,-38 -80,-51 -168,-43c-113,11 -162,44 -162,113c0,43 31,70 103,90c69,20 77,43 15,43c-43,0 -109,-17 -160,-40c-29,-14 -52,-63 -46,-102c4,-27 158,-122 212,-131c20,-3 65,-20 101,-37l66,-31l-26,-30c-20,-25 -25,-41 -25,-87c0,-31 7,-70 15,-86c9,-16 14,-30 13,-31c-14,-9 -167,-28 -263,-32c-158,-7 -196,3 -230,61c-14,24 -30,69 -36,100c-9,49 -8,61 6,83c38,57 143,70 228,27c70,-35 87,-52 87,-86c0,-47 -26,-75 -81,-88c-83,-20 -69,-32 28,-24c91,7 103,13 123,62c12,28 13,82 2,99c-4,6 -41,29 -82,49l-75,37l-140,2c-169,2 -211,13 -231,61c-20,48 -17,83 11,141c31,62 78,112 125,134c101,48 101,48 270,48c119,1 179,-3 214,-14zm-594,-431c25,-10 47,-28 55,-45c20,-38 19,-106 -3,-149c-18,-37 -74,-80 -103,-80c-16,0 -18,6 -13,43c9,66 -7,93 -63,109c-64,18 -66,38 -10,93c49,50 72,55 137,29zm1176,-321c9,-7 44,-15 78,-19c67,-8 56,-16 -36,-29c-45,-6 -48,-8 -57,-43c-5,-20 -13,-68 -17,-107l-8,-70l-7,80c-8,112 -16,134 -48,140c-14,3 -46,12 -71,19l-45,14l66,1c76,1 82,6 100,76l13,50l8,-50c4,-28 14,-55 24,-62zm-366,22c52,-14 74,-26 113,-63c27,-26 54,-58 62,-72c18,-34 42,-142 50,-220c11,-112 6,-106 103,-129c158,-36 239,-44 382,-37c169,9 217,19 306,63c114,56 146,95 158,190c12,98 -32,159 -143,193c-158,50 -382,9 -495,-91c-65,-57 -85,-138 -43,-177c65,-62 248,-53 354,15c28,19 38,50 23,68c-18,21 -34,18 -45,-7c-15,-35 -71,-58 -140,-58c-99,0 -112,37 -39,108c68,65 118,83 238,89c111,5 147,-7 174,-59c29,-53 -33,-170 -113,-215c-83,-47 -250,-79 -362,-69c-81,6 -161,40 -187,78c-18,26 -21,101 -5,146c25,73 209,183 347,207c243,43 555,41 640,-2c83,-44 100,-118 60,-267c-20,-75 -27,-86 -87,-149c-66,-69 -209,-164 -294,-195c-70,-26 -337,-23 -457,5c-52,13 -120,28 -150,34c-51,10 -152,39 -192,54c-42,17 -4,-177 55,-278c22,-39 47,-58 100,-77c21,-7 27,-16 27,-37c0,-52 -12,-72 -58,-103c-41,-27 -53,-30 -129,-30c-97,0 -121,11 -158,74c-28,49 -55,148 -55,205c0,84 -51,186 -110,216c-32,17 -76,20 -84,6c-12,-19 17,-129 50,-188c19,-34 34,-66 34,-72c0,-24 -64,-51 -123,-51c-140,0 -171,64 -127,268c28,134 46,162 104,162c39,0 146,-41 197,-75l49,-34l0,44c0,40 -3,45 -27,51c-15,4 -112,47 -217,96c-104,48 -191,88 -193,88c-7,0 -33,62 -33,80c0,63 98,181 183,221c50,24 151,21 257,-6zm-732,-41c48,-37 82,-114 82,-187c0,-69 -31,-149 -67,-172c-29,-20 -63,-73 -63,-100c0,-109 138,-243 210,-205c26,14 26,48 -1,162c-42,180 -9,438 63,491c15,11 50,22 79,25l52,5l-30,-44c-107,-156 -97,-237 34,-289c32,-13 59,-24 61,-25c1,-2 -7,-36 -18,-76c-11,-41 -29,-114 -39,-164c-26,-124 -43,-160 -82,-174c-76,-26 -205,-4 -275,48l-38,29l-16,-46c-17,-51 -31,-59 -111,-61c-78,-2 -108,8 -126,43c-36,69 -25,336 17,433c18,41 60,73 95,73c25,0 48,66 40,117c-5,32 -14,49 -36,65c-40,30 -35,59 11,75c50,18 117,8 158,-23zm-893,-28c134,-37 159,-71 231,-314c29,-101 57,-158 84,-172c20,-11 20,-9 14,117c-7,142 7,222 51,299c37,63 61,74 157,74c95,0 134,-17 168,-72c30,-48 23,-89 -16,-102c-56,-20 -75,-40 -95,-101c-41,-122 -49,-196 -49,-456c0,-219 -2,-250 -16,-256c-9,-3 -46,-1 -83,6c-62,11 -74,10 -192,-19c-264,-63 -452,-29 -488,89c-17,59 -14,170 7,211c37,75 171,105 269,61c49,-23 93,-85 100,-142c7,-48 -13,-59 -63,-35c-45,21 -62,20 -103,-5l-34,-20l29,-30c40,-42 83,-50 189,-39c99,11 128,18 123,28c-5,9 -63,132 -89,189c-10,24 -19,46 -19,51c0,16 -103,187 -140,231c-20,26 -40,54 -43,64c-4,9 -10,17 -15,17c-13,0 -2,-47 14,-61c37,-30 -6,-79 -69,-79c-92,0 -158,47 -203,143c-34,74 -34,181 1,241c29,49 62,82 90,89c42,10 142,6 190,-7z"/>
   <path id="svg_2" d="m3416.999259,1815.747774c0,-53 -28,-230 -54,-338l-13,-57l30,-11c42,-14 52,-3 83,105c22,75 64,284 64,317c0,11 -62,38 -90,38c-18,0 -20,-6 -20,-54z"/>
   <path id="svg_3" d="m2435.999259,1902.747774c-30,-16 -60,-39 -66,-53c-16,-31 -17,-151 -2,-183c13,-29 48,-47 88,-47l28,0l7,118c4,64 9,134 13,155c3,21 1,37 -4,37c-5,0 -34,-12 -64,-27z"/>
   <path id="svg_4" d="m2839.999259,1562.747774c-18,-43 -28,-142 -16,-159c4,-6 22,-14 38,-18l30,-6l24,79c13,44 24,84 24,88c1,9 -62,53 -75,53c-5,0 -16,-17 -25,-37z"/>
   <path id="svg_5" d="m2076.999259,1150.747774c-56,-12 -79,-29 -91,-70c-15,-50 -5,-102 24,-128c19,-18 158,-78 226,-98c34,-10 41,7 41,108c0,122 -13,149 -84,176c-60,22 -62,23 -116,12z"/>
   <path id="svg_6" d="m856.999259,635.747774c0,-8 30,-72 66,-143c90,-175 105,-189 59,-54c-13,41 -28,96 -31,123c-6,42 -11,51 -33,59c-14,5 -34,14 -43,19c-14,8 -18,7 -18,-4z"/>
  </g>
  <g fill="#442244" id="layer2">
   <path id="svg_7" d="m846.999259,2186.747774c0,-6 10,-30 21,-54c19,-40 21,-57 17,-166c-3,-76 -11,-134 -20,-155c-14,-32 -15,-26 -22,125c-8,186 -12,213 -35,213c-43,0 -198,-240 -291,-451c-53,-119 -92,-179 -117,-179c-10,0 -4,13 21,41c48,52 46,86 -4,111c-73,36 -136,13 -195,-71c-27,-39 -30,-50 -30,-119c0,-131 52,-182 193,-190c89,-5 118,6 173,65c55,59 84,127 109,253c22,112 54,226 69,249c15,24 24,-50 17,-132c-4,-40 -16,-103 -26,-142c-84,-310 -63,-395 97,-395c59,0 123,27 123,51c0,6 -15,38 -34,72c-55,99 -75,273 -39,340l17,32l12,-135c14,-149 24,-195 59,-256c37,-63 61,-74 158,-74c76,0 88,3 129,30c46,31 58,51 58,103c0,21 -6,30 -27,37c-81,30 -112,76 -167,254c-39,125 -51,179 -66,286c-28,199 -47,233 -142,255c-41,9 -58,10 -58,2z"/>
   <path id="svg_8" d="m3039.999259,2104.747774c-40,-29 -30,-60 32,-100c63,-40 124,-124 145,-201c15,-52 10,-102 -29,-287c-12,-55 -22,-124 -23,-155l-3,-57l176,-3l177,-2l43,33c44,33 74,82 131,215c53,120 62,296 21,380c-44,91 -286,178 -523,188c-106,5 -128,3 -147,-11zm452,-249c19,-8 35,-19 35,-24c0,-33 -42,-242 -64,-317c-31,-108 -41,-119 -83,-105l-30,11l13,57c26,108 54,285 54,338c0,61 10,67 75,40z"/>
   <path id="svg_9" d="m2636.999259,2090.747774c-25,-10 -57,-30 -71,-44c-31,-30 -92,-62 -137,-72c-26,-5 -44,-1 -76,16c-33,17 -50,20 -81,15c-98,-19 -137,-134 -102,-302c20,-97 33,-110 114,-118c37,-3 97,-9 132,-12l64,-7l-6,-65c-5,-48 -13,-73 -33,-99c-53,-70 -115,-69 -81,2c19,39 22,82 8,104c-26,41 -196,54 -268,21c-47,-21 -59,-47 -50,-107c13,-78 66,-115 191,-132c155,-22 192,-14 257,56c32,34 99,163 99,190c0,28 62,199 95,264c21,41 46,98 56,128c21,61 25,151 7,169c-17,17 -65,14 -118,-7zm-133,-198c-4,-21 -9,-91 -13,-155l-7,-118l-28,0c-40,0 -75,18 -88,47c-15,32 -14,152 2,183c11,22 105,80 130,80c5,0 7,-16 4,-37z"/>
   <path id="svg_10" d="m1165.999259,2034.747774c-31,-17 -59,-80 -59,-133c0,-43 32,-188 55,-252c28,-79 68,-100 115,-62c19,15 24,33 31,118c12,127 22,156 71,204c30,30 39,46 36,67c-3,24 -11,30 -73,50c-81,25 -139,28 -176,8z"/>
   <path id="svg_11" d="m2906.999259,1989.747774c-16,-16 -20,-33 -20,-84c0,-70 25,-120 70,-143c22,-11 15,-13 -57,-13l-83,0l0,103c0,57 -3,107 -6,110c-4,4 -24,-35 -45,-87c-20,-51 -49,-120 -64,-152c-46,-101 -53,-117 -77,-189c-23,-70 -29,-156 -15,-207c7,-25 11,-27 90,-33c118,-10 374,-2 387,11c11,11 30,87 51,199c10,56 9,61 -12,77c-11,10 -28,18 -37,18c-9,0 -54,15 -101,33l-86,32l55,3c30,2 82,-2 115,-8c59,-12 60,-12 83,16c22,25 24,35 20,93c-7,88 -35,140 -106,196c-47,37 -64,45 -99,45c-30,0 -49,-6 -63,-20zm0,-412c19,-13 33,-27 33,-31c0,-4 -11,-44 -24,-88l-24,-79l-30,6c-16,4 -34,12 -38,18c-20,29 15,196 41,196c5,0 24,-10 42,-22z"/>
   <path id="svg_12" d="m1586.999259,1982.747774c-87,-38 -107,-50 -137,-81c-40,-42 -83,-127 -83,-164c0,-16 6,-44 14,-62c20,-48 62,-59 231,-61l140,-2l75,-37c41,-20 78,-43 82,-49c11,-17 10,-71 -2,-99c-20,-49 -32,-55 -123,-62c-97,-8 -111,4 -28,24c55,13 81,41 81,88c0,34 -17,51 -87,86c-85,43 -190,30 -228,-27c-14,-22 -15,-34 -6,-83c6,-31 22,-76 36,-100c34,-58 72,-68 230,-61c96,4 249,23 263,32c1,1 -4,15 -13,31c-8,16 -15,55 -15,86c0,46 5,62 25,87l26,30l-66,31c-36,17 -81,34 -101,37c-54,9 -208,104 -212,131c-6,39 17,88 46,102c51,23 117,40 160,40c62,0 54,-23 -15,-43c-72,-20 -103,-47 -103,-90c0,-69 49,-102 162,-113c88,-8 138,5 168,43c16,21 20,41 20,100c0,169 -57,203 -340,202c-126,0 -173,-4 -200,-16z"/>
   <path id="svg_13" d="m1269.999259,1524.747774c-56,-55 -54,-75 10,-93c56,-16 72,-43 63,-109c-5,-37 -3,-43 13,-43c29,0 85,43 103,80c22,43 23,111 3,149c-15,30 -77,61 -122,61c-17,0 -40,-15 -70,-45z"/>
   <path id="svg_14" d="m2537.999259,1294.747774c-18,-70 -24,-75 -100,-76l-66,-1l45,-14c25,-7 57,-16 71,-19c32,-6 40,-28 48,-140l7,-80l8,70c4,39 12,87 17,107c9,35 12,37 57,43c92,13 103,21 36,29c-79,9 -93,20 -102,81l-8,50l-13,-50z"/>
   <path id="svg_15" d="m1959.999259,1260.747774c-85,-40 -183,-158 -183,-221c0,-18 26,-80 33,-80c2,0 89,-40 193,-88c105,-49 202,-92 217,-96c24,-6 27,-11 27,-51l0,-44l-49,34c-51,34 -158,75 -197,75c-58,0 -76,-28 -104,-162c-44,-204 -13,-268 127,-268c59,0 123,27 123,51c0,6 -15,38 -34,72c-33,59 -62,169 -50,188c8,14 52,11 84,-6c59,-30 110,-132 110,-216c0,-57 27,-156 55,-205c37,-63 61,-74 158,-74c76,0 88,3 129,30c46,31 58,51 58,103c0,21 -6,30 -27,37c-53,19 -78,38 -100,77c-35,59 -73,183 -73,237c0,42 2,47 18,41c40,-15 141,-44 192,-54c30,-6 98,-21 150,-34c120,-28 387,-31 457,-5c85,31 228,126 294,195c60,63 67,74 87,149c40,149 23,223 -60,267c-85,43 -397,45 -640,2c-138,-24 -322,-134 -347,-207c-16,-45 -13,-120 5,-146c26,-38 106,-72 187,-78c112,-10 279,22 362,69c80,45 142,162 113,215c-27,52 -63,64 -174,59c-120,-6 -170,-24 -238,-89c-73,-71 -60,-108 39,-108c69,0 125,23 140,58c11,25 27,28 45,7c57,-68 -181,-155 -319,-115c-74,21 -97,70 -66,142c56,136 347,220 546,158c111,-34 155,-95 143,-193c-12,-95 -44,-134 -158,-190c-89,-44 -137,-54 -306,-63c-143,-7 -224,1 -382,37c-97,23 -92,17 -103,129c-8,78 -32,186 -50,220c-8,14 -35,46 -62,72c-55,53 -124,76 -253,84c-61,4 -83,1 -117,-15zm233,-122c71,-27 84,-54 84,-176c0,-101 -7,-118 -41,-108c-68,20 -207,80 -226,98c-29,26 -39,78 -24,128c12,41 35,58 91,70c54,11 56,10 116,-12z"/>
   <path id="svg_16" d="m1326.999259,1236.747774c-46,-16 -51,-45 -11,-75c22,-16 31,-33 36,-65c8,-51 -15,-117 -40,-117c-35,0 -77,-32 -95,-73c-42,-97 -53,-364 -17,-433c18,-35 48,-45 126,-43c80,2 94,10 111,61l16,46l38,-29c70,-52 199,-74 275,-48c39,14 56,50 82,174c10,50 28,123 39,164c11,40 19,74 18,76c-2,1 -29,12 -61,25c-131,52 -141,133 -34,289l30,44l-52,-5c-29,-3 -64,-14 -79,-25c-72,-53 -105,-311 -63,-491c27,-114 27,-148 1,-162c-72,-38 -210,96 -210,205c0,27 34,80 63,100c36,23 67,103 67,172c0,150 -119,254 -240,210z"/>
   <path id="svg_17" d="m401.999259,1192.747774c-28,-7 -61,-40 -90,-89c-35,-60 -35,-167 -1,-241c45,-96 111,-143 203,-143c63,0 106,49 69,79c-16,14 -27,61 -14,61c5,0 11,-8 15,-17c3,-10 23,-38 43,-64c37,-44 140,-215 140,-231c0,-5 9,-27 19,-51c26,-57 84,-180 89,-189c5,-10 -24,-17 -123,-28c-106,-11 -149,-3 -189,39l-29,30l34,20c41,25 58,26 103,5c50,-24 70,-13 63,35c-7,57 -51,119 -100,142c-98,44 -232,14 -269,-61c-21,-41 -24,-152 -7,-211c36,-118 224,-152 488,-89c118,29 130,30 192,19c37,-7 74,-9 83,-6c14,6 16,37 16,256c0,260 8,334 49,456c20,61 39,81 95,101c39,13 46,54 16,102c-34,55 -73,72 -168,72c-96,0 -120,-11 -157,-74c-44,-77 -58,-157 -51,-299c6,-126 6,-128 -14,-117c-27,14 -55,71 -84,172c-72,243 -97,277 -231,314c-48,13 -148,17 -190,7zm516,-572c22,-8 27,-17 33,-59c3,-27 18,-82 31,-123c46,-135 31,-121 -59,54c-69,135 -79,165 -48,147c9,-5 29,-14 43,-19z"/>
  </g>
 </g>
</svg>